<?xml version="1.0" encoding="UTF-8"?>
<svg id="Layer_1" xmlns="http://www.w3.org/2000/svg" version="1.1" viewBox="0 0 33 36.7">
  <!-- Generator: Adobe Illustrator 29.1.0, SVG Export Plug-In . SVG Version: 2.1.0 Build 142)  -->
  <defs>
    <style>
      .st0 {
        fill: #fff;
      }
    </style>
  </defs>
  <path class="st0" d="M33,10.1h0v-.6c-.2,0-.2-.1-.3-.2h-.2c0-.1-7.7-4.7-7.7-4.7L17.5.3c-.2-.1-.4-.2-.6-.3h-.9c-.2,0-.4.1-.6.2L.8,8.7h-.2c0,.1-.2.3-.2.3h-.2v.5c-.1,0-.1.2-.1.2h-.1v16.7c0,.3,0,.6.2.9.2.3.4.5.7.7l14.7,8.6h.3c0,0,.2,0,.2,0h1.4c0,0,14.5-8.6,14.5-8.6.3-.2.5-.4.7-.7s.2-.6.2-.9V10.1h0ZM16.4,3.9l3.5,2-10.9,6.4-3.5-2,10.9-6.4ZM14.5,31.8l-10.7-6.2v-11.9l10.7,6.3v11.8ZM16.4,16.7l-3.7-2.1,10.9-6.5,3.8,2.2-10.9,6.4h0ZM29.1,25.5l-10.7,6.4v-11.9l10.7-6.3s0,11.8,0,11.8Z"/>
</svg>