<?xml version="1.0" encoding="UTF-8"?>
<svg id="Layer_1" xmlns="http://www.w3.org/2000/svg" version="1.1" viewBox="0 0 39.1 37">
  <!-- Generator: Adobe Illustrator 29.1.0, SVG Export Plug-In . SVG Version: 2.1.0 Build 142)  -->
  <defs>
    <style>
      .st0 {
        fill: #fff;
      }
    </style>
  </defs>
  <path class="st0" d="M36.3,31.7c1.2-1.6,2.1-3.3,2.5-5.2s.3-3.9-.2-5.7c-.5-1.9-1.5-3.6-2.8-5.1s-3-2.7-4.8-3.5c-.4-2.2-1.3-4.3-2.7-6.1-1.4-1.8-3.2-3.3-5.3-4.4-2.1-1.1-4.4-1.7-6.8-1.7s-4.7.3-6.9,1.3c-2.2.9-4.1,2.3-5.6,4S1.1,9,.5,11.2c-.6,2.2-.6,4.5,0,6.7.5,2.2,1.5,4.3,3,6l-2.7,2.6c-.3.3-.5.6-.5.9s0,.7,0,1.1c0,.3.4.6.7.8s.7.3,1.1.3h11.1c1.1,2.2,2.8,4.1,5,5.4,2.2,1.3,4.7,2,7.3,2h11.7c.4,0,.8,0,1.1-.3s.6-.5.7-.8c0-.3.2-.7,0-1.1,0-.4-.3-.7-.5-.9l-2.1-2-.2-.2ZM11.7,24c0,.6,0,1.2.2,1.8h-5.2l.7-.6c.2-.2.3-.4.4-.6,0-.2,0-.5,0-.7s0-.5,0-.7c0-.2-.2-.4-.4-.6-1.1-1-2-2.2-2.5-3.6-.6-1.3-.9-2.8-.9-4.2,0-2.9,1.2-5.8,3.4-7.8,2.2-2.1,5.2-3.2,8.3-3.2s4.8.7,6.8,2,3.5,3.2,4.3,5.4h-1.3c-3.6,0-7.1,1.4-9.6,3.8-2.6,2.4-4,5.7-4,9.2l-.2-.2ZM32.3,33.2h-7c-2.3,0-4.4-.7-6.2-2.1-1.7-1.4-2.9-3.2-3.4-5.3-.4-2.1,0-4.3,1-6.2,1.1-1.9,2.8-3.4,4.9-4.2s4.4-.9,6.6-.3c2.2.6,4,1.9,5.3,3.7,1.2,1.8,1.8,3.9,1.6,6s-1.2,4.1-2.8,5.6c-.4.3-.6.8-.6,1.3s0,.5.2.7c.1.2.2.4.4.6h0v.2Z"/>
</svg>