<?xml version="1.0" encoding="UTF-8"?>
<svg id="Layer_1" xmlns="http://www.w3.org/2000/svg" version="1.1" viewBox="0 0 31.9 39">
  <!-- Generator: Adobe Illustrator 29.1.0, SVG Export Plug-In . SVG Version: 2.1.0 Build 142)  -->
  <path d="M27.3,4.8C24.3,1.7,20.2,0,16,0S7.7,1.7,4.7,4.8C1.7,7.9,0,12.1,0,16.5s1.7,8.6,4.7,11.7l9.9,10.3c.2.2.4.3.6.4.2,0,.5,0,.7,0s.5,0,.7,0c.2,0,.4-.2.6-.4l10-10.4c3-3.1,4.7-7.3,4.7-11.6s-1.7-8.5-4.7-11.6h0ZM24.6,25.3l-8.6,8.9-8.6-8.9c-1.7-1.8-2.9-4-3.3-6.4-.5-2.4-.2-5,.7-7.3.9-2.3,2.5-4.3,4.5-5.6,2-1.4,4.4-2.1,6.8-2.1s4.8.7,6.8,2.1,3.6,3.3,4.5,5.6c.9,2.3,1.2,4.8.7,7.3-.5,2.4-1.6,4.7-3.3,6.4h-.2ZM10.3,10.5c-1.5,1.6-2.4,3.7-2.4,5.9s.9,4.4,2.4,5.9c1.1,1.2,2.6,2,4.1,2.3,1.6.3,3.2.2,4.7-.5,1.5-.6,2.8-1.7,3.7-3s1.4-3,1.4-4.6-.2-2.2-.6-3.2-1-1.9-1.8-2.7c-.7-.8-1.6-1.4-2.6-1.8s-2-.7-3.1-.7-2.1.2-3.1.6-1.9,1-2.7,1.8ZM19.2,19.6c-.7.7-1.7,1.2-2.7,1.3s-2,0-2.9-.7c-.9-.6-1.5-1.4-1.8-2.4s-.3-2.1.1-3.1c.4-1,1.1-1.8,2-2.3s1.9-.7,2.9-.5c1,.2,1.9.8,2.5,1.6s1,1.8,1,2.9-.5,2.3-1.4,3.2h.3Z"/>
</svg>