<?xml version="1.0" encoding="UTF-8"?>
<svg id="Layer_1" xmlns="http://www.w3.org/2000/svg" version="1.1" viewBox="0 0 36 36">
  <!-- Generator: Adobe Illustrator 29.1.0, SVG Export Plug-In . SVG Version: 2.1.0 Build 142)  -->
  <path d="M5.5,7.2v9c0,.5.2.9.5,1.3.3.3.8.5,1.3.5h5.4v14.4h-3.6c-.5,0-.9.2-1.3.5-.3.3-.5.8-.5,1.3s.2.9.5,1.3c.3.3.8.5,1.3.5h10.7c.5,0,.9-.2,1.3-.5.3-.3.5-.8.5-1.3s-.2-.9-.5-1.3-.8-.5-1.3-.5h-3.6v-14.4h8.9c.3,0,.5,0,.8-.2.2-.1.5-.3.6-.5l3.6-4.5c.3-.3.4-.7.4-1.1s-.1-.8-.4-1.1l-3.6-4.5c-.2-.2-.4-.4-.6-.5s-.5-.2-.8-.2h-8.9V1.8c0-.5-.2-.9-.5-1.3C15.4.2,14.9,0,14.4,0s-.9.2-1.3.5c-.3.3-.5.8-.5,1.3v3.6h-5.3c-.5,0-.9.2-1.3.5-.3.3-.5.8-.5,1.3ZM9.1,9h15.2l2.1,2.7-2.1,2.7h-15.2v-5.4Z"/>
</svg>