<?xml version="1.0" encoding="UTF-8"?>
<svg id="Layer_1" xmlns="http://www.w3.org/2000/svg" version="1.1" viewBox="0 0 37 37">
  <!-- Generator: Adobe Illustrator 29.1.0, SVG Export Plug-In . SVG Version: 2.1.0 Build 142)  -->
  <defs>
    <style>
      .st0 {
        fill: #fff;
      }
    </style>
  </defs>
  <path class="st0" d="M37,5.7c0-1.1-.3-2.2-1-3.2-.6-.9-1.5-1.7-2.6-2.1C32.4,0,31.2-.1,30.1.1c-1.1.2-2.1.8-2.9,1.6l-5.2,5.2-12-4c-.3,0-.7,0-1,0-.3,0-.6.2-.9.5L3.7,7.8c-.2.2-.4.5-.5.8v.9c0,.3.2.6.4.8s.4.4.7.5l9.6,4.3-4.8,4.8-3.2-1.6c-.3-.2-.7-.3-1.1-.2s-.7.2-1,.5l-3.3,3.3C.2,22.2,0,22.7,0,23.2s.2,1,.5,1.3l12,12c.3.3.8.5,1.3.5s1-.2,1.3-.5l3.3-3.3c.3-.3.5-.6.5-1s0-.8-.2-1.1l-1.6-3.2,4.8-4.8,4.3,9.6c.1.3.3.5.5.7s.5.3.8.4h.9c.3,0,.5-.2.8-.5l4.4-4.4c.2-.2.4-.5.5-.9v-1l-4-12,5.1-5.2c.5-.5,1-1.2,1.2-1.8.3-.7.4-1.4.4-2.2h.2ZM32.7,7.1l-6,6c-.2.2-.4.5-.5.9v1l4,12-1.7,1.7-4.3-9.6c-.1-.3-.3-.5-.5-.7s-.5-.3-.8-.4h-.9c-.3,0-.5.2-.8.5l-7.6,7.7c-.3.3-.5.6-.5,1s0,.8.2,1.1l1.5,3.1-1,1-9.3-9.3,1.1-1,3.2,1.6c.3.2.7.2,1.1.2s.7-.2,1-.5l7.7-7.7c.2-.2.4-.5.5-.8,0-.3.1-.6,0-.9,0-.3-.2-.6-.4-.8-.2-.2-.4-.4-.7-.5l-9.6-4.3,1.7-1.7,12,4c.3.1.7.1,1,0,.3,0,.6-.2.9-.5l6-6c.2-.2.4-.3.6-.4s.5-.2.8-.2.5,0,.8.2c.2,0,.5.3.6.4.2.2.3.4.4.6,0,.2.2.5,0,.8v.8c0,.2-.2.5-.4.7h0Z"/>
</svg>