<svg width="29" height="29" viewBox="0 0 29 29" fill="none" xmlns="http://www.w3.org/2000/svg">
<path d="M21.75 7.2499H7.25C6.86544 7.2499 6.49662 7.40266 6.2247 7.67459C5.95277 7.94651 5.8 8.31532 5.8 8.69988C5.8 9.08444 5.95277 9.45325 6.2247 9.72517C6.49662 9.99709 6.86544 10.1499 7.25 10.1499H21.75C22.1346 10.1499 22.5034 9.99709 22.7753 9.72517C23.0472 9.45325 23.2 9.08444 23.2 8.69988C23.2 8.31532 23.0472 7.94651 22.7753 7.67459C22.5034 7.40266 22.1346 7.2499 21.75 7.2499ZM21.75 13.0498H7.25C6.86544 13.0498 6.49662 13.2026 6.2247 13.4745C5.95277 13.7464 5.8 14.1152 5.8 14.4998C5.8 14.8844 5.95277 15.2532 6.2247 15.5251C6.49662 15.797 6.86544 15.9498 7.25 15.9498H21.75C22.1346 15.9498 22.5034 15.797 22.7753 15.5251C23.0472 15.2532 23.2 14.8844 23.2 14.4998C23.2 14.1152 23.0472 13.7464 22.7753 13.4745C22.5034 13.2026 22.1346 13.0498 21.75 13.0498ZM24.65 0H4.35C3.19631 0 2.08987 0.458296 1.27409 1.27407C0.458302 2.08984 0 3.19626 0 4.34994V18.8497C0 20.0034 0.458302 21.1098 1.27409 21.9256C2.08987 22.7414 3.19631 23.1997 4.35 23.1997H21.1555L26.5205 28.5791C26.656 28.7135 26.8167 28.8198 26.9933 28.892C27.17 28.9641 27.3592 29.0007 27.55 28.9996C27.7402 29.0045 27.9289 28.9648 28.101 28.8836C28.3658 28.7748 28.5925 28.5901 28.7525 28.3527C28.9124 28.1153 28.9986 27.8359 29 27.5496V4.34994C29 3.19626 28.5417 2.08984 27.7259 1.27407C26.9101 0.458296 25.8037 0 24.65 0ZM26.1 24.0552L22.7795 20.7202C22.644 20.5858 22.4833 20.4795 22.3067 20.4073C22.13 20.3352 21.9408 20.2986 21.75 20.2997H4.35C3.96544 20.2997 3.59662 20.147 3.3247 19.875C3.05277 19.6031 2.9 19.2343 2.9 18.8497V4.34994C2.9 3.96538 3.05277 3.59657 3.3247 3.32465C3.59662 3.05273 3.96544 2.89996 4.35 2.89996H24.65C25.0346 2.89996 25.4034 3.05273 25.6753 3.32465C25.9472 3.59657 26.1 3.96538 26.1 4.34994V24.0552Z" fill="#152C40" style="fill:#152C40;fill:color(display-p3 0.0824 0.1725 0.2510);fill-opacity:1;"/>
</svg>
