<?xml version="1.0" encoding="UTF-8"?>
<svg id="Layer_1" xmlns="http://www.w3.org/2000/svg" version="1.1" viewBox="0 0 30 30">
  <!-- Generator: Adobe Illustrator 29.1.0, SVG Export Plug-In . SVG Version: 2.1.0 Build 142)  -->
  <defs>
    <style>
      .st0 {
        fill: #ee2d2b;
      }
    </style>
  </defs>
  <path class="st0" d="M27.8,0H2.2c-.3,0-.6,0-.8.2-.3.1-.5.3-.7.5-.2.2-.4.4-.5.7-.1.3-.2.5-.2.8v25.7c0,.3,0,.6.2.8.1.3.3.5.5.7.2.2.4.4.7.5.3.1.6.2.8.2h25.6c.3,0,.6,0,.8-.2.3-.1.5-.3.7-.5.2-.2.4-.4.5-.7.1-.3.2-.5.2-.8V2.1c0-.3,0-.6-.2-.8-.1-.3-.3-.5-.5-.7-.2-.2-.4-.4-.7-.5C28.4,0,28.1,0,27.8,0ZM9.1,25.1h-4.5v-13.5h4.5v13.5ZM6.8,9.7c-.6,0-1.2-.2-1.7-.7-.4-.4-.7-1-.7-1.7s.2-1.2.7-1.7c.4-.4,1-.7,1.7-.7.3,0,.7,0,1,0,.3.1.6.3.9.5.2.2.4.5.6.8s.2.6.2,1,0,.7-.2,1-.3.6-.6.8c-.2.2-.5.4-.9.5-.3.1-.7.1-1,0ZM25.4,25.1h-4.5v-7.2c0-1.8-.6-3-2.3-3-.5,0-1,.2-1.4.5-.4.3-.7.7-.9,1.2-.1.4-.2.7-.2,1.1v7.5h-4.5v-13.5h4.5v1.9c.4-.7,1-1.3,1.7-1.7.7-.4,1.5-.6,2.4-.6,3,0,5.2,1.9,5.2,6.1v7.8Z"/>
</svg>