<?xml version="1.0" encoding="UTF-8"?>
<svg id="Layer_1" xmlns="http://www.w3.org/2000/svg" version="1.1" viewBox="0 0 30 30">
  <!-- Generator: Adobe Illustrator 29.1.0, SVG Export Plug-In . SVG Version: 2.1.0 Build 142)  -->
  <defs>
    <style>
      .st0 {
        fill: #ee2d2b;
      }
    </style>
  </defs>
  <path class="st0" d="M28.4,0H1.6C1.2,0,.8.2.5.5c-.3.3-.5.7-.5,1.2v26.7c0,.2,0,.4.1.6,0,.2.2.4.4.5.2.2.3.3.5.4.2,0,.4.1.6.1h14.4v-11.6h-3.9v-4.5h3.9v-3.4c0-.8,0-1.6.3-2.3.3-.8.7-1.4,1.2-2,.6-.6,1.2-1,2-1.3.7-.3,1.5-.4,2.3-.3,1.2,0,2.3,0,3.5.2v4h-2.4c-1.9,0-2.2.9-2.2,2.2v2.9h4.5l-.6,4.5h-3.9v11.7h7.6c.2,0,.4,0,.6-.1.2,0,.4-.2.5-.4s.3-.3.4-.5c0-.2.1-.4.1-.6V1.6c0-.2,0-.4-.1-.6,0-.2-.2-.4-.4-.5-.2-.2-.3-.3-.5-.4C28.8,0,28.6,0,28.4,0Z"/>
</svg>