<?xml version="1.0" encoding="UTF-8"?>
<svg id="Layer_1" xmlns="http://www.w3.org/2000/svg" version="1.1" viewBox="0 0 30 30">
  <!-- Generator: Adobe Illustrator 29.1.0, SVG Export Plug-In . SVG Version: 2.1.0 Build 142)  -->
  <defs>
    <style>
      .st0 {
        fill: #ee2d2b;
      }
    </style>
  </defs>
  <path class="st0" d="M23,5.2c-.4,0-.7,0-1,.3-.3.2-.5.5-.7.8-.1.3-.2.7-.1,1,0,.3.2.7.5.9.3.3.6.4.9.5.3,0,.7,0,1-.1s.6-.4.8-.7c.2-.3.3-.6.3-1s-.2-.9-.5-1.3c-.3-.3-.8-.5-1.3-.5h.1ZM29.9,8.8c0-1.2-.3-2.5-.7-3.6-.4-1-1-1.9-1.7-2.7s-1.7-1.4-2.7-1.7c-1.2-.4-2.4-.7-3.6-.7C19.6,0,19.1,0,15,0h-6.2C7.6,0,6.3.3,5.2.7c-1,.4-1.9,1-2.7,1.7s-1.4,1.7-1.7,2.7c-.4,1.2-.7,2.5-.8,3.7v12.4c0,1.2.3,2.5.7,3.6.4,1,1,1.9,1.7,2.7.7.8,1.7,1.4,2.7,1.7,1.2.4,2.4.7,3.6.7h12.4c1.2,0,2.5-.3,3.6-.7,1-.4,1.9-1,2.7-1.7.8-.7,1.4-1.7,1.7-2.7.4-1.2.7-2.4.7-3.6v-12.4h0ZM27.2,21c0,1-.2,1.9-.5,2.8-.2.7-.6,1.2-1.1,1.7s-1.1.9-1.7,1.1c-.9.3-1.8.5-2.8.5h-12c-1,0-2-.1-2.9-.4-.6-.3-1.2-.6-1.7-1.1s-.9-1.1-1.1-1.7c-.4-.9-.6-1.9-.6-2.9v-12c0-1,.2-1.9.5-2.8.3-.6.7-1.2,1.2-1.7s1-.9,1.7-1.2c.9-.3,1.9-.5,2.8-.5h12c1,0,1.9.2,2.8.5.7.3,1.3.7,1.8,1.2s.9,1,1.1,1.7c.3.9.5,1.9.5,2.8v6c0,3.9,0,4.5,0,6ZM15,7.3c-1.5,0-3,.5-4.3,1.3s-2.2,2.1-2.8,3.5c-.6,1.4-.7,3-.4,4.4.3,1.5,1,2.9,2.1,3.9,1.1,1.1,2.4,1.8,3.9,2.1,1.5.3,3,.1,4.4-.4,1.4-.6,2.6-1.6,3.5-2.8.8-1.3,1.3-2.8,1.3-4.3s-.2-2-.6-3c-.4-.9-1-1.8-1.7-2.5s-1.6-1.3-2.5-1.7c-.9-.4-1.9-.6-3-.6h.1ZM15,20c-1,0-2-.3-2.8-.8s-1.5-1.3-1.8-2.2c-.4-.9-.5-1.9-.3-2.9s.7-1.9,1.4-2.6c.7-.7,1.6-1.2,2.6-1.4,1-.2,2,0,2.9.3.9.4,1.7,1,2.2,1.8s.8,1.8.8,2.8-.1,1.3-.4,1.9-.6,1.2-1.1,1.6-1,.8-1.6,1.1c-.6.3-1.3.4-1.9.4Z"/>
</svg>