<?xml version="1.0" encoding="UTF-8"?>
<svg id="Layer_1" xmlns="http://www.w3.org/2000/svg" version="1.1" viewBox="0 0 42.9 34.9">
  <!-- Generator: Adobe Illustrator 29.1.0, SVG Export Plug-In . SVG Version: 2.1.0 Build 142)  -->
  <path d="M0,18.4v9.2c0,.5.2,1,.6,1.3.4.3.9.5,1.4.5h2c0,1.5.6,2.9,1.7,3.9s2.6,1.6,4.1,1.6,3-.6,4.1-1.6,1.7-2.4,1.7-3.9h11.7c0,1.5.6,2.9,1.7,3.9s2.6,1.6,4.1,1.6,3-.6,4.1-1.6,1.7-2.4,1.7-3.9h2c.5,0,1-.2,1.4-.5s.6-.8.6-1.3V5.5c0-1.5-.6-2.9-1.7-3.9-1.1-1-2.6-1.6-4.1-1.6h-17.6c-1.6,0-3,.6-4.1,1.6s-1.7,2.4-1.7,3.9v3.7h-3.9c-.9,0-1.8.2-2.6.6-.8.4-1.5.9-2.1,1.6L.4,17.3s0,.2,0,.3v.2c-.2.2-.2.4-.3.6ZM31.3,29.5c0-.4.1-.7.3-1,.2-.3.5-.5.9-.7.4,0,.8-.2,1.1,0,.4,0,.7.2,1,.5s.5.6.5.9,0,.7,0,1.1c0,.3-.4.6-.7.8s-.7.3-1.1.3-1-.2-1.4-.5-.6-.8-.6-1.3h0ZM17.6,5.5c0-.5.2-1,.6-1.3s.9-.5,1.4-.5h17.6c.5,0,1,.2,1.4.5s.6.8.6,1.3v20.3h-1.5c-.5-.6-1.2-1-2-1.3-.7-.3-1.6-.5-2.4-.5s-1.6.2-2.4.5-1.4.8-2,1.3h-11.3s0-20.3,0-20.3ZM13.7,16.6h-7.8l2.3-2.9c.2-.2.4-.4.7-.5s.6-.2.9-.2h3.9v3.7h0ZM7.8,29.5c0-.4,0-.7.3-1,.2-.3.5-.5.9-.7.4,0,.8-.2,1.1,0,.4,0,.7.2,1,.5s.5.6.5.9,0,.7-.1,1.1c-.1.3-.4.6-.7.8s-.7.3-1.1.3-1-.2-1.4-.5c-.4-.3-.6-.8-.6-1.3h0ZM3.9,20.3h9.8v5.1c-1.2-1-2.7-1.5-4.2-1.4-1.5,0-3,.7-4,1.8h-1.5v-5.5h-.1Z"/>
</svg>