<?xml version="1.0" encoding="UTF-8"?>
<svg id="Layer_1" xmlns="http://www.w3.org/2000/svg" version="1.1" viewBox="0 0 36 36">
  <!-- Generator: Adobe Illustrator 29.1.0, SVG Export Plug-In . SVG Version: 2.1.0 Build 142)  -->
  <path d="M35.6,17.8l-3.6-4.5c-.2-.2-.4-.4-.6-.5s-.5-.2-.8-.2h-10.8V1.8c0-.5-.2-.9-.5-1.3-.3-.3-.8-.5-1.3-.5s-.9.2-1.3.5c-.3.3-.5.8-.5,1.3v1.8H5.4c-.3,0-.5,0-.8.2-.2.1-.5.3-.6.5L.4,8.8c-.3.3-.4.7-.4,1.1s.1.8.4,1.1l3.6,4.5c.2.2.4.4.6.5.2.1.5.2.8.2h10.8v16.2h-3.6c-.5,0-.9.2-1.3.5-.3.3-.5.8-.5,1.3s.2.9.5,1.3c.3.3.8.5,1.3.5h10.8c.5,0,.9-.2,1.3-.5.3-.3.5-.8.5-1.3s-.2-.9-.5-1.3c-.3-.3-.8-.5-1.3-.5h-3.6v-7.2h10.8c.3,0,.5,0,.8-.2s.5-.3.6-.5l3.6-4.5c.3-.3.4-.7.4-1.1s-.1-.8-.4-1.1ZM16.2,12.6H6.3l-2.2-2.7,2.2-2.7h9.9v5.4ZM29.7,21.6h-9.9v-5.4h9.9l2.2,2.7-2.2,2.7Z"/>
</svg>