<?xml version="1.0" encoding="UTF-8"?>
<svg id="Layer_1" xmlns="http://www.w3.org/2000/svg" version="1.1" viewBox="0 0 39.1 36.8">
  <!-- Generator: Adobe Illustrator 29.1.0, SVG Export Plug-In . SVG Version: 2.1.0 Build 142)  -->
  <path d="M23.6,11h2c.5,0,1-.2,1.4-.5s.6-.8.6-1.3-.2-1-.6-1.3-.9-.5-1.4-.5h-2c-.5,0-1,.2-1.4.5s-.6.8-.6,1.3.2,1,.6,1.3.9.5,1.4.5ZM23.6,18.4h2c.5,0,1-.2,1.4-.5s.6-.8.6-1.3-.2-1-.6-1.3-.9-.5-1.4-.5h-2c-.5,0-1,.2-1.4.5s-.6.8-.6,1.3.2,1,.6,1.3.9.5,1.4.5ZM13.8,11h2c.5,0,1-.2,1.4-.5s.6-.8.6-1.3-.2-1-.6-1.3-.9-.5-1.4-.5h-2c-.5,0-1,.2-1.4.5s-.6.8-.6,1.3.2,1,.6,1.3c.4.3.9.5,1.4.5ZM13.8,18.4h2c.5,0,1-.2,1.4-.5s.6-.8.6-1.3-.2-1-.6-1.3-.9-.5-1.4-.5h-2c-.5,0-1,.2-1.4.5s-.6.8-.6,1.3.2,1,.6,1.3c.4.3.9.5,1.4.5ZM37.2,33.2h-2V1.8c0-.5-.2-1-.6-1.3-.4-.3-.9-.5-1.4-.5H6c-.5,0-1,.2-1.4.5s-.6.8-.6,1.3v31.4h-2c-.5,0-1,.2-1.4.5-.4.3-.6.8-.6,1.3s.2,1,.6,1.3c.4.3.9.5,1.4.5h35.1c.5,0,1-.2,1.4-.5s.6-.8.6-1.3-.2-1-.6-1.3c-.4-.3-.9-.5-1.4-.5h.1ZM21.7,33.2h-3.9v-7.4h3.9v7.4ZM31.4,33.2h-5.9v-9.2c0-.5-.2-1-.6-1.3s-.9-.5-1.4-.5h-7.8c-.5,0-1,.2-1.4.5s-.6.8-.6,1.3v9.2h-5.8V3.6h23.4v29.6h.1Z"/>
</svg>