<?xml version="1.0" encoding="UTF-8"?>
<svg id="Layer_1" xmlns="http://www.w3.org/2000/svg" version="1.1" viewBox="0 0 150 130.71">
  <!-- Generator: Adobe Illustrator 29.1.0, SVG Export Plug-In . SVG Version: 2.1.0 Build 142)  -->
  <defs>
    <style>
      .st0 {
        fill: #707070;
      }

      .st1 {
        fill: #1a61e1;
      }
    </style>
  </defs>
  <rect class="st0" x="-41.09" y="50.07" width="115.24" height="33.05" transform="translate(83.12 50.07) rotate(90)"/>
  <path class="st1" d="M150,65.35c0,7.43-1.24,14.57-3.52,21.22-8.81,25.68-33.16,44.13-61.83,44.13-36.09,0-65.35-29.26-65.35-65.35S48.55,0,84.65,0c21.19,0,40.03,10.09,51.97,25.73l-14.84,15.81c-7.75-11.25-20.71-18.62-35.4-18.62-23.72,0-42.95,19.23-42.95,42.95s19.23,42.95,42.95,42.95c16.21,0,30.32-8.98,37.63-22.24h-37.63v-21.59h63.62c0,.13,0,.25,0,.37Z"/>
</svg>