<?xml version="1.0" encoding="UTF-8"?>
<svg id="Layer_2" xmlns="http://www.w3.org/2000/svg" version="1.1" viewBox="0 0 151.47 113.49">
  <!-- Generator: Adobe Illustrator 29.1.0, SVG Export Plug-In . SVG Version: 2.1.0 Build 142)  -->
  <defs>
    <style>
      .st0 {
        fill: #834c8c;
      }

      .st1 {
        fill: #73c1c5;
      }

      .st2 {
        fill: #7a4283;
      }
    </style>
  </defs>
  <path class="st0" d="M83.26,26.26s16.96,23.96,31.17,34.77v-.21s8.27-18.23,28.2-37.1l-.42.21s-19.29,30.96-17.81,71.24l.21.85s-34.14-33.29-41.35-69.76Z"/>
  <path class="st1" d="M74.28,14.63s-16.96,23.96-31.17,34.77v-.21S34.84,30.96,14.91,12.09l.42.21s19.29,30.96,17.81,71.24l-.21.85S67.07,51.1,74.28,14.63Z"/>
  <circle class="st0" cx="46.26" cy="13.2" r="13.2"/>
  <circle class="st1" cx="110.9" cy="25.29" r="13.2"/>
  <path class="st1" d="M0,70.47s27.07,31.39,113.78,34.05h4.82c4.78,0,9.56-.51,14.21-1.66,7.46-1.84,16.08-5.59,14.53-12.95,0,0,18.44,21.43-22.42,23.59h-4.5c-6.87,0-13.73-.38-20.56-1.16-25.38-2.92-81.32-12.55-99.84-41.86Z"/>
  <rect class="st2" x="65.29" y="56.16" width="8.99" height="8.99"/>
  <rect class="st2" x="77.35" y="56.16" width="8.99" height="8.99"/>
  <rect class="st2" x="65.29" y="68.29" width="8.99" height="8.99"/>
  <rect class="st2" x="77.35" y="68.29" width="8.99" height="8.99"/>
</svg>