<svg width="126" height="129" viewBox="0 0 126 129" fill="none" xmlns="http://www.w3.org/2000/svg">
<path d="M110.454 106.081C109.47 107.411 108.932 109.414 108.932 111.749C108.932 116.262 110.893 122.097 115.348 127.132C115.892 127.749 115.499 128.865 114.751 128.818C103.625 128.105 93.1149 122.215 85.4721 112.335L42.6856 56.9893C42.0164 56.1184 42.5347 54.7013 43.5187 54.7251L51.5814 54.8834C52.408 54.8992 52.6507 53.5217 51.8831 53.1338L33.8816 44.085C32.5958 43.4358 31.4346 42.47 30.4833 41.2349L0.259851 2.13417C-0.468347 1.19208 0.469782 -0.256685 1.40135 0.368737L84.6783 56.3163C90.9893 60.5676 95.9227 67.2652 98.6584 75.3402L100.298 80.1932C101.44 83.5737 104.038 85.917 107.049 86.2812L108.092 86.4079C110.762 86.7245 113.308 87.7299 115.577 89.3212C118.562 91.4112 120.911 94.6017 122.492 98.3067L125.589 105.566C125.818 106.097 125.339 106.675 124.9 106.398L124.185 105.946C122.131 104.664 119.894 103.809 117.591 103.603C114.607 103.342 111.943 104.062 110.454 106.089V106.081Z" fill="#F22929" style="fill:#F22929;fill:color(display-p3 0.9490 0.1608 0.1608);fill-opacity:1;"/>
<path d="M22.5519 85.7587H57.7809C58.7584 85.7587 59.6965 86.2416 60.3657 87.0966L82.5658 115.351C83.0447 115.961 82.5002 116.935 81.8508 116.626L22.2042 87.9358C21.2464 87.4766 21.5153 85.7508 22.5519 85.7508V85.7587Z" fill="#F22929" style="fill:#F22929;fill:color(display-p3 0.9490 0.1608 0.1608);fill-opacity:1;"/>
</svg>
