<svg width="412" height="109" viewBox="0 0 412 109" fill="none" xmlns="http://www.w3.org/2000/svg">
<path d="M68.5614 50.8858H51.5539C48.4065 56.8527 42.9796 59.9117 35.9719 59.9117C24.9629 59.9117 18.675 52.7212 17.1013 42.4717H68.9849C69.2742 40.6363 69.4153 38.8009 69.4153 36.6558C69.4153 15.2354 55.6964 0.552269 35.2521 0.552269C12.8106 0.552269 0.517212 18.453 0.517212 38.0305C0.517212 57.608 12.5213 75.3577 34.8216 75.3577C51.1164 75.3577 63.9814 66.0221 68.5544 50.8782L68.5614 50.8858ZM35.118 15.394C43.4101 15.394 51.8432 20.9002 52.9865 30.8475H17.5318C19.2467 21.8217 25.104 15.394 35.1109 15.394H35.118Z" fill="#152C40" style="fill:#152C40;fill:color(display-p3 0.0824 0.1725 0.2510);fill-opacity:1;"/>
<path d="M384.781 30.1751C375.628 28.1735 371.775 26.3457 371.775 22.3803C371.775 17.637 377.068 15.0237 382.354 15.0237C388.5 15.0237 394.358 18.702 394.929 25.1296H410.497C409.926 8.75463 396.927 0.80127 383.208 0.80127C370.413 0.80127 357.118 7.30444 356.109 21.6854C354.062 7.47061 341.882 0.559578 329.087 0.559578C316.293 0.559578 301.924 7.59146 301.924 23.2112C301.924 23.9514 301.967 24.6614 302.023 25.3487C298.029 10.2501 285.87 0.567127 269.271 0.567127C255.687 0.567127 245.828 7.13073 240.154 16.6551V1.17892C239.441 0.869247 237.578 0.567127 235.722 0.567127C225.433 0.567127 217.854 5.92223 214.424 14.9481L212.998 2.10039H198.277V31.3987C195.673 13.2411 182.674 0.567127 165.462 0.567127C154.171 0.567127 146.881 5.00076 142.59 11.7381L141.447 2.10039H107.855L92.4213 25.3562L76.9875 2.10039H57.8347L82.2803 37.29L57.5524 73.8544H76.2748L92.4284 49.0728L108.582 73.8544H126.599V103.689H143.324V65.1381C147.897 71.2561 154.905 75.3876 165.907 75.3876C182.738 75.3876 195.694 63.2046 198.298 45.047V73.8619H215.024V40.6663C215.024 26.2853 223.746 16.9572 236.752 16.9572C237.705 16.9572 239.046 17.1687 239.801 17.3273C236.357 23.4 234.565 30.6131 234.565 38.068C234.565 57.3434 246.569 75.3952 268.869 75.3952C283.717 75.3952 295.707 67.6457 301.183 54.8131C303.745 68.6276 315.707 75.5462 328.826 75.5462C340.484 75.5462 352.538 70.2365 356.412 59.2014C360.399 70.2516 371.204 75.7879 382.94 75.7879C397.082 75.7879 411.81 67.9932 411.81 51.6106C411.81 35.2281 396.793 32.6449 384.788 30.1977L384.781 30.1751ZM102.569 37.2674L126.585 2.49316V72.7818L102.569 37.2674ZM163.041 59.6018C151.461 59.6018 143.176 50.2662 143.176 38.1813C143.176 26.0964 151.468 16.3077 163.041 16.3077C174.615 16.3077 182.484 26.255 182.484 38.1813C182.484 50.1076 174.763 59.6018 163.041 59.6018ZM269.137 15.3938C277.429 15.3938 285.863 20.8999 287.006 30.8473H251.558C253.273 21.8214 259.13 15.3938 269.137 15.3938ZM329.955 60.984C323.703 60.984 317.93 57.6455 316.49 50.878H300.711H285.58C282.433 56.8449 277.006 59.9039 269.998 59.9039C258.989 59.9039 252.701 52.7134 251.128 42.4639H303.011C303.301 40.6285 303.442 38.7931 303.442 36.648C303.442 34.299 303.265 32.0331 302.948 29.8578C306.201 39.5106 316.73 42.0334 325.657 43.6875C333.709 45.1528 339.637 46.5274 340.978 50.878C341.155 51.4898 341.246 52.1393 341.246 52.8569C341.246 58.3631 335.812 60.9764 329.955 60.9764V60.984ZM384.069 61.2332C377.816 61.2332 372.043 57.8948 370.604 51.1272H357.682C357.682 51.0442 357.682 50.9611 357.675 50.8855C357.407 34.6389 342.573 32.3579 330.675 29.9334C321.536 27.9318 317.669 26.104 317.669 22.1386C317.669 17.3953 322.962 14.782 328.247 14.782C334.394 14.782 340.251 18.4603 340.823 24.8879H356.094C356.885 38.9517 369.404 42.0334 379.778 43.9518C388.931 45.6286 395.367 47.177 395.367 53.1212C395.367 58.6274 389.933 61.2408 384.076 61.2408L384.069 61.2332Z" fill="#152C40" style="fill:#152C40;fill:color(display-p3 0.0824 0.1725 0.2510);fill-opacity:1;"/>
<path d="M167.297 98.115C167.459 99.5727 168.602 100.29 169.859 100.29C170.952 100.29 171.969 99.8069 171.969 98.7797C171.969 97.6618 170.769 97.3824 169.061 97.0651C167.057 96.695 164.629 96.0908 164.629 93.2357C164.629 90.3807 167.219 89.006 169.703 89.006C172.187 89.006 174.693 90.494 174.806 93.5454H171.898C171.792 92.3445 170.698 91.6571 169.548 91.6571C168.56 91.6571 167.572 92.1405 167.572 93.0318C167.572 93.772 168.292 94.1194 170 94.4895C172.244 94.9503 175.045 95.3732 175.045 98.4926C175.045 101.612 172.293 103.009 169.654 103.009C167.015 103.009 164.425 101.378 164.396 98.1225H167.304L167.297 98.115Z" fill="#152C40" style="fill:#152C40;fill:color(display-p3 0.0824 0.1725 0.2510);fill-opacity:1;"/>
<path d="M178.482 83.0316H181.608V90.8036C182.117 90.1163 183.316 89.006 185.398 89.006C188.63 89.006 190.444 91.2342 190.444 94.346V102.692H187.318V95.1769C187.318 93.2357 186.301 92.0877 184.622 92.0877C182.942 92.0877 181.608 93.2282 181.608 95.1769V102.692H178.482V83.0391V83.0316Z" fill="#152C40" style="fill:#152C40;fill:color(display-p3 0.0824 0.1725 0.2510);fill-opacity:1;"/>
<path d="M194.262 84.8896C194.262 83.7491 195.059 82.888 196.132 82.888C197.205 82.888 198.03 83.7415 198.03 84.8896C198.03 86.0377 197.233 86.861 196.132 86.861C195.031 86.861 194.262 86.0301 194.262 84.8896ZM194.579 102.692V89.293H197.727V102.692H194.579Z" fill="#152C40" style="fill:#152C40;fill:color(display-p3 0.0824 0.1725 0.2510);fill-opacity:1;"/>
<path d="M205.151 101.061V108.259H202.025V89.2855H204.798L205.01 91.0831C205.807 89.8293 207.169 88.9984 209.279 88.9984C212.885 88.9984 215.496 91.9668 215.496 96.0303C215.496 100.094 212.878 102.972 209.357 102.972C207.303 102.972 205.991 102.201 205.137 101.061H205.151ZM212.469 96.0303C212.469 93.8022 211.029 91.9442 208.842 91.9442C206.654 91.9442 205.13 93.8022 205.13 96.0303C205.13 98.2585 206.675 100.033 208.842 100.033C211.008 100.033 212.469 98.2887 212.469 96.0303Z" fill="#152C40" style="fill:#152C40;fill:color(display-p3 0.0824 0.1725 0.2510);fill-opacity:1;"/>
<path d="M222.053 101.061V108.259H218.926V89.2855H221.7L221.911 91.0831C222.709 89.8293 224.071 88.9984 226.181 88.9984C229.787 88.9984 232.398 91.9668 232.398 96.0303C232.398 100.094 229.78 102.972 226.259 102.972C224.205 102.972 222.892 102.201 222.038 101.061H222.053ZM229.364 96.0303C229.364 93.8022 227.924 91.9442 225.736 91.9442C223.549 91.9442 222.024 93.8022 222.024 96.0303C222.024 98.2585 223.57 100.033 225.736 100.033C227.903 100.033 229.364 98.2887 229.364 96.0303Z" fill="#152C40" style="fill:#152C40;fill:color(display-p3 0.0824 0.1725 0.2510);fill-opacity:1;"/>
<path d="M235.503 84.8896C235.503 83.7491 236.301 82.888 237.374 82.888C238.446 82.888 239.272 83.7415 239.272 84.8896C239.272 86.0377 238.474 86.861 237.374 86.861C236.273 86.861 235.503 86.0301 235.503 84.8896ZM235.828 102.692V89.293H238.976V102.692H235.828Z" fill="#152C40" style="fill:#152C40;fill:color(display-p3 0.0824 0.1725 0.2510);fill-opacity:1;"/>
<path d="M243.273 89.293H245.969L246.237 90.9245C246.717 90.1541 248.107 89.0136 250.161 89.0136C253.527 89.0136 255.39 91.2719 255.39 94.5575V102.7H252.292V95.275C252.292 93.2433 251.226 92.1028 249.49 92.1028C247.754 92.1028 246.449 93.2735 246.449 95.2448L246.392 102.7H243.266V89.3006L243.273 89.293Z" fill="#152C40" style="fill:#152C40;fill:color(display-p3 0.0824 0.1725 0.2510);fill-opacity:1;"/>
<path d="M269.518 89.293H272.214V101.491C272.214 105.864 269.681 108.606 265.566 108.606C262.179 108.606 259.773 106.665 259.13 103.546H262.257C262.708 104.89 264.07 105.66 265.566 105.66C267.648 105.66 269.088 104.263 269.088 101.778V100.925C268.262 102.043 266.9 102.836 264.868 102.836C261.346 102.836 258.672 99.89 258.672 95.8642C258.672 91.8384 261.339 89.006 264.868 89.006C266.9 89.006 268.312 89.8368 269.166 91.0076L269.511 89.293H269.518ZM269.06 95.8869C269.06 93.6587 267.514 91.9139 265.376 91.9139C263.238 91.9139 261.749 93.6587 261.749 95.8869C261.749 98.115 263.188 99.973 265.376 99.973C267.564 99.973 269.06 98.1452 269.06 95.8869Z" fill="#152C40" style="fill:#152C40;fill:color(display-p3 0.0824 0.1725 0.2510);fill-opacity:1;"/>
<path d="M295.545 102.692L293.971 101.061C292.821 101.975 291.113 102.972 288.58 102.972C284.712 102.972 282.009 100.774 282.009 97.6845C282.009 95.5998 283.315 93.8551 285.665 92.5711C284.254 91.0302 283.689 89.8293 283.689 88.4018C283.689 85.4863 285.905 83.4621 289.109 83.4621C292.313 83.4621 294.26 85.4939 294.26 88.1223C294.26 90.494 292.362 92.0952 290.146 93.1224L293.774 96.8687C294.119 96.2721 294.282 95.4412 294.282 94.3838C294.282 93.8098 294.225 93.1526 294.119 92.352H296.949C297.027 93.2055 297.055 93.9835 297.027 94.6406C296.97 96.272 296.653 97.6089 295.799 98.7797L299.589 102.692H295.531H295.545ZM287.507 94.4895C286.575 94.9201 285.051 95.834 285.051 97.4579C285.051 99.0818 286.575 100.147 288.763 100.147C290.174 100.147 291.275 99.6331 291.939 99.0289L287.507 94.4895ZM291.325 88.2583C291.325 87.0271 290.443 86.2038 289.109 86.2038C287.669 86.2038 286.653 87.0876 286.653 88.4018C286.653 89.5423 287.323 90.1994 288.283 91.204C290.153 90.3202 291.325 89.4894 291.325 88.2583Z" fill="#152C40" style="fill:#152C40;fill:color(display-p3 0.0824 0.1725 0.2510);fill-opacity:1;"/>
<path d="M307.507 83.0316H310.633V102.685H307.507V83.0316Z" fill="#152C40" style="fill:#152C40;fill:color(display-p3 0.0824 0.1725 0.2510);fill-opacity:1;"/>
<path d="M320.746 89.006C324.641 89.006 327.471 92.0348 327.471 96.0077C327.471 99.9806 324.641 102.979 320.746 102.979C316.85 102.979 314.02 99.9504 314.02 96.0077C314.02 92.065 316.85 89.006 320.746 89.006ZM324.401 96.0001C324.401 93.7418 322.877 92.0272 320.746 92.0272C318.614 92.0272 317.09 93.7418 317.09 96.0001C317.09 98.2585 318.614 99.9428 320.746 99.9428C322.877 99.9428 324.401 98.2283 324.401 96.0001Z" fill="#152C40" style="fill:#152C40;fill:color(display-p3 0.0824 0.1725 0.2510);fill-opacity:1;"/>
<path d="M340.795 89.293H343.491V101.491C343.491 105.864 340.957 108.606 336.843 108.606C333.455 108.606 331.049 106.665 330.407 103.546H333.533C333.985 104.89 335.347 105.66 336.843 105.66C338.925 105.66 340.364 104.263 340.364 101.778V100.925C339.539 102.043 338.177 102.836 336.144 102.836C332.623 102.836 329.948 99.89 329.948 95.8642C329.948 91.8384 332.616 89.006 336.144 89.006C338.177 89.006 339.588 89.8368 340.442 91.0076L340.788 89.293H340.795ZM340.336 95.8869C340.336 93.6587 338.791 91.9139 336.652 91.9139C334.514 91.9139 333.025 93.6587 333.025 95.8869C333.025 98.115 334.465 99.973 336.652 99.973C338.84 99.973 340.336 98.1452 340.336 95.8869Z" fill="#152C40" style="fill:#152C40;fill:color(display-p3 0.0824 0.1725 0.2510);fill-opacity:1;"/>
<path d="M347.464 84.8896C347.464 83.7491 348.261 82.888 349.334 82.888C350.406 82.888 351.232 83.7415 351.232 84.8896C351.232 86.0377 350.435 86.861 349.334 86.861C348.233 86.861 347.464 86.0301 347.464 84.8896ZM347.788 102.692V89.293H350.936V102.692H347.788Z" fill="#152C40" style="fill:#152C40;fill:color(display-p3 0.0824 0.1725 0.2510);fill-opacity:1;"/>
<path d="M357.238 98.115C357.4 99.5727 358.543 100.29 359.799 100.29C360.893 100.29 361.909 99.8069 361.909 98.7797C361.909 97.6618 360.71 97.3824 359.002 97.0651C356.998 96.695 354.57 96.0908 354.57 93.2357C354.57 90.3807 357.16 89.006 359.644 89.006C362.128 89.006 364.633 90.494 364.746 93.5454H361.839C361.733 92.3445 360.639 91.6571 359.489 91.6571C358.501 91.6571 357.513 92.1405 357.513 93.0318C357.513 93.772 358.233 94.1194 359.94 94.4895C362.185 94.9503 364.986 95.3732 364.986 98.4926C364.986 101.612 362.234 103.009 359.595 103.009C356.955 103.009 354.365 101.378 354.337 98.1225H357.245L357.238 98.115Z" fill="#152C40" style="fill:#152C40;fill:color(display-p3 0.0824 0.1725 0.2510);fill-opacity:1;"/>
<path d="M366.983 89.293H369.249V85.5769L372.29 84.95V89.293H376.158V92.065H372.312V97.692C372.312 99.467 373.377 100.003 374.873 100.003C375.191 100.003 375.565 99.9731 375.833 99.89V102.805C375.381 102.949 374.711 103.002 374.203 103.002C371.211 103.002 369.214 101.401 369.214 97.8582V92.0575H366.969V89.2855L366.983 89.293Z" fill="#152C40" style="fill:#152C40;fill:color(display-p3 0.0824 0.1725 0.2510);fill-opacity:1;"/>
<path d="M379.023 84.8896C379.023 83.7491 379.82 82.888 380.893 82.888C381.966 82.888 382.791 83.7415 382.791 84.8896C382.791 86.0377 381.994 86.861 380.893 86.861C379.792 86.861 379.023 86.0301 379.023 84.8896ZM379.34 102.692V89.293H382.488V102.692H379.34Z" fill="#152C40" style="fill:#152C40;fill:color(display-p3 0.0824 0.1725 0.2510);fill-opacity:1;"/>
<path d="M398.825 97.6014C398.211 100.827 395.649 102.972 392.474 102.972C388.712 102.972 385.854 99.973 385.854 95.9699C385.854 91.9668 388.684 88.9984 392.474 88.9984C395.409 88.9984 398.317 91.0302 398.776 94.2554H395.706C395.169 92.8807 393.97 91.9668 392.502 91.9668C390.476 91.9668 388.924 93.7418 388.924 95.9699C388.924 98.1981 390.498 99.9957 392.502 99.9957C393.97 99.9957 395.148 99.0818 395.706 97.5938H398.832L398.825 97.6014Z" fill="#152C40" style="fill:#152C40;fill:color(display-p3 0.0824 0.1725 0.2510);fill-opacity:1;"/>
<path d="M404.061 98.115C404.224 99.5727 405.367 100.29 406.623 100.29C407.717 100.29 408.733 99.8069 408.733 98.7797C408.733 97.6618 407.533 97.3824 405.826 97.0651C403.821 96.695 401.394 96.0908 401.394 93.2357C401.394 90.3807 403.984 89.006 406.468 89.006C408.952 89.006 411.457 90.494 411.57 93.5454H408.663C408.557 92.3445 407.463 91.6571 406.313 91.6571C405.325 91.6571 404.337 92.1405 404.337 93.0318C404.337 93.772 405.056 94.1194 406.764 94.4895C409.008 94.9503 411.81 95.3732 411.81 98.4926C411.81 101.612 409.058 103.009 406.418 103.009C403.779 103.009 401.189 101.378 401.161 98.1225H404.068L404.061 98.115Z" fill="#152C40" style="fill:#152C40;fill:color(display-p3 0.0824 0.1725 0.2510);fill-opacity:1;"/>
</svg>
